<svg width="171" height="116" viewBox="0 0 171 116" fill="none" xmlns="http://www.w3.org/2000/svg">
<path d="M37.9697 22.1856C41.7013 23.0963 44.8776 23.5364 47.4987 23.506C50.1351 23.4122 53.1635 22.811 56.5838 21.7023C61.4542 20.1434 68.064 19.0089 76.4131 18.2989C84.8409 17.5411 90.7309 17.5713 94.083 18.3894C104.266 20.8745 120.073 28.0495 141.504 39.9143C148.061 43.5251 153.697 47.6148 158.413 52.1833C163.191 56.7673 165.318 60.1345 164.793 62.2849C163.929 65.8268 158.627 66.4092 148.887 64.0321C143.89 62.8126 138.629 60.892 133.103 58.2702C126.817 55.1947 121.176 53.0473 116.18 51.8279C116.929 53.1501 117.534 54.102 117.996 54.6836C120.686 58.4898 121.652 61.9425 120.896 65.0416C120.047 68.5203 116.49 70.6008 110.225 71.2833C111.727 74.4646 112.185 77.2569 111.598 79.6603C110.58 83.8347 107.369 85.7317 101.967 85.3514C102.337 86.581 102.398 87.7018 102.151 88.7137C100.669 94.7855 95.1493 97.3587 85.591 96.4333L77.7697 95.5297L68.8122 94.7509C67.8326 94.6459 66.995 94.5084 66.2992 94.3386C58.33 92.3937 52.5029 89.4973 48.818 85.6493L44.0056 80.6549C41.8137 78.3776 39.2146 76.671 36.208 75.5352L29.824 73.2735L19.379 69.116C19.1494 67.5856 18.9536 66.4656 18.7918 65.756C17.3781 58.6424 17.5589 51.4489 19.334 44.1754C21.7729 34.1823 26.672 26.4649 34.0314 21.0234L37.9697 22.1856ZM18.9781 73.6422C16.3676 75.5517 14.2401 76.3057 12.5957 75.9044C9.30678 75.1017 7.29096 71.8286 6.54821 66.0851C5.80545 60.3416 6.46828 53.2322 8.53669 44.757C11.0682 34.3844 14.4254 26.2572 18.6085 20.3756C22.7915 14.4939 26.9703 12.0625 31.1446 13.0813C33.1685 13.5752 34.7109 15.493 35.7718 18.8346C34.3281 17.611 33.1002 16.8758 32.0882 16.6288C28.7993 15.8261 25.3472 18.3009 21.7319 24.053C18.1953 29.7574 15.2075 37.6061 12.7686 47.5993C11.1479 54.2403 10.7143 59.9983 11.468 64.8733C12.2849 69.7637 14.0848 72.5485 16.8677 73.2277C17.3105 73.3357 18.0139 73.4739 18.9781 73.6422Z" fill="#F6F6F6"/>
</svg>
