<svg width="171" height="116" viewBox="0 0 171 116" fill="none" xmlns="http://www.w3.org/2000/svg">
<path d="M37.9698 22.1854C41.7014 23.0961 44.8777 23.5362 47.4988 23.5058C50.1352 23.412 53.1636 22.8108 56.5839 21.7021C61.4543 20.1432 68.0641 19.0087 76.4132 18.2987C84.841 17.5409 90.731 17.5711 94.0831 18.3892C104.266 20.8743 120.073 28.0493 141.504 39.9141C148.061 43.5249 153.697 47.6146 158.413 52.1831C163.191 56.7671 165.318 60.1343 164.793 62.2847C163.929 65.8266 158.627 66.409 148.887 64.0319C143.89 62.8124 138.629 60.8918 133.103 58.27C126.817 55.1945 121.176 53.0471 116.18 51.8277C116.929 53.1499 117.534 54.1018 117.996 54.6834C120.686 58.4896 121.652 61.9423 120.896 65.0414C120.047 68.5201 116.49 70.6006 110.225 71.2831C111.727 74.4644 112.185 77.2567 111.598 79.6601C110.58 83.8345 107.369 85.7315 101.967 85.3512C102.337 86.5808 102.398 87.7016 102.151 88.7135C100.669 94.7853 95.1494 97.3585 85.5911 96.4331L77.7698 95.5295L68.8123 94.7507C67.8327 94.6457 66.9951 94.5082 66.2993 94.3384C58.3301 92.3935 52.503 89.4971 48.8181 85.6491L44.0057 80.6547C41.8138 78.3774 39.2147 76.6708 36.2081 75.535L29.8241 73.2733L19.3791 69.1158C19.1495 67.5854 18.9537 66.4654 18.7919 65.7558C17.3782 58.6422 17.559 51.4487 19.3341 44.1752C21.773 34.1821 26.6721 26.4647 34.0315 21.0232L37.9698 22.1854ZM18.9782 73.642C16.3677 75.5515 14.2402 76.3055 12.5958 75.9042C9.30685 75.1015 7.29103 71.8284 6.54828 66.0849C5.80552 60.3414 6.46835 53.232 8.53676 44.7568C11.0683 34.3842 14.4255 26.257 18.6086 20.3754C22.7916 14.4937 26.9704 12.0623 31.1447 13.0811C33.1686 13.575 34.711 15.4928 35.7719 18.8344C34.3282 17.6108 33.1003 16.8756 32.0883 16.6286C28.7994 15.8259 25.3473 18.3007 21.732 24.0528C18.1954 29.7572 15.2076 37.6059 12.7687 47.5991C11.148 54.2401 10.7144 59.9981 11.4681 64.8731C12.285 69.7635 14.0849 72.5483 16.8678 73.2275C17.3106 73.3355 18.014 73.4737 18.9782 73.642Z" fill="#FAF0E6"/>
</svg>
