<svg width="460" height="373" viewBox="0 0 460 373" fill="none" xmlns="http://www.w3.org/2000/svg">
<g clip-path="url(#clip0_267_255)">
<path d="M459.6 259C459.6 323.2 415.8 372.4 345.6 372.4C289.8 372.4 246.6 340.6 229.8 291.4C213 340.6 169.8 372.4 114 372.4C43.8 372.4 0 323.2 0 259C0 208.6 27 164.2 77.4 142.6L106.8 130C168 103.6 208.2 75.3999 208.2 32.7999C208.2 20.7999 205.2 9.99988 200.4 0.399902H259.2C254.4 9.99988 251.4 20.7999 251.4 32.7999C251.4 75.3999 291.6 103.6 352.8 130L382.2 142.6C432.6 164.2 459.6 208.6 459.6 259Z" fill="#FAF0E6"/>
</g>
<defs>
<clipPath id="clip0_267_255">
<rect width="460" height="373" fill="white"/>
</clipPath>
</defs>
</svg>
