<svg width="460" height="373" viewBox="0 0 460 373" fill="none" xmlns="http://www.w3.org/2000/svg">
<path d="M459.6 259C459.6 323.2 415.8 372.4 345.6 372.4C289.8 372.4 246.6 340.6 229.8 291.4C213 340.6 169.8 372.4 114 372.4C43.8003 372.4 0.000318527 323.2 0.000318527 259C0.000318527 208.6 27.0003 164.2 77.4003 142.6L106.8 130C168 103.6 208.2 75.4 208.2 32.8C208.2 20.8 205.2 9.99998 200.4 0.399998H259.2C254.4 9.99998 251.4 20.8 251.4 32.8C251.4 75.4 291.6 103.6 352.8 130L382.2 142.6C432.6 164.2 459.6 208.6 459.6 259Z" fill="#F6F6F6"/>
</svg>
