<svg width="196" height="50" viewBox="0 0 196 50" fill="none" xmlns="http://www.w3.org/2000/svg">
<path d="M12.024 38.612C5.184 38.612 0.684 35.588 0.54 29.9H6.948C7.236 32.492 8.928 33.572 11.988 33.572C14.076 33.572 16.128 32.816 16.128 30.872C16.128 28.82 14.04 28.388 10.512 27.524C6.048 26.48 1.332 25.112 1.332 19.712C1.332 14.204 5.796 11.792 11.556 11.792C17.136 11.792 21.456 14.312 21.708 19.712H15.48C15.228 17.732 13.716 16.616 11.34 16.616C9.108 16.616 7.632 17.588 7.632 19.028C7.632 20.828 9.612 21.26 13.464 22.124C18.252 23.24 22.572 24.716 22.572 30.224C22.572 35.624 17.964 38.612 12.024 38.612ZM30.2541 38.468C26.5821 38.468 23.9541 36.488 23.9541 32.852C23.9541 28.784 27.1941 27.56 31.0101 27.056C34.4661 26.624 35.6901 26.264 35.6901 25.004C35.6901 23.816 34.9341 23.024 33.1701 23.024C31.2981 23.024 30.3621 23.852 30.1821 25.4H24.7821C24.9261 21.98 27.5541 19.064 33.1341 19.064C35.9061 19.064 37.7781 19.568 39.1101 20.576C40.6941 21.728 41.4501 23.528 41.4501 25.832V35.12C41.4501 36.596 41.5941 37.424 42.0981 37.748V38H36.4101C36.1221 37.604 35.9421 36.884 35.7981 35.948H35.7261C34.6461 37.496 33.0261 38.468 30.2541 38.468ZM32.1261 34.724C34.3221 34.724 35.8341 33.392 35.8341 31.412V29.216C35.0781 29.612 33.9981 29.9 32.8101 30.188C30.5421 30.692 29.6061 31.268 29.6061 32.672C29.6061 34.148 30.6861 34.724 32.1261 34.724ZM44.2946 38V19.568H49.9106V22.196H50.0186C51.1706 20.288 52.9346 19.028 55.5986 19.028C58.0106 19.028 59.8466 20.288 60.7826 22.268H60.8546C62.2946 20.036 64.2746 19.028 66.6506 19.028C70.8266 19.028 72.9146 21.872 72.9146 26.012V38H67.0466V27.056C67.0466 25.076 66.2186 23.924 64.4546 23.924C62.5826 23.924 61.5386 25.472 61.5386 27.668V38H55.6706V27.056C55.6706 25.076 54.8426 23.924 53.0786 23.924C51.2426 23.924 50.1626 25.472 50.1626 27.668V38H44.2946ZM81.0197 38.468C77.3477 38.468 74.7197 36.488 74.7197 32.852C74.7197 28.784 77.9597 27.56 81.7757 27.056C85.2317 26.624 86.4557 26.264 86.4557 25.004C86.4557 23.816 85.6997 23.024 83.9357 23.024C82.0637 23.024 81.1277 23.852 80.9477 25.4H75.5477C75.6917 21.98 78.3197 19.064 83.8997 19.064C86.6717 19.064 88.5437 19.568 89.8757 20.576C91.4597 21.728 92.2157 23.528 92.2157 25.832V35.12C92.2157 36.596 92.3597 37.424 92.8637 37.748V38H87.1757C86.8877 37.604 86.7077 36.884 86.5637 35.948H86.4917C85.4117 37.496 83.7917 38.468 81.0197 38.468ZM82.8917 34.724C85.0877 34.724 86.5997 33.392 86.5997 31.412V29.216C85.8437 29.612 84.7637 29.9 83.5757 30.188C81.3077 30.692 80.3717 31.268 80.3717 32.672C80.3717 34.148 81.4517 34.724 82.8917 34.724ZM104.024 38.576C98.0843 38.576 94.2323 34.364 94.2323 28.82C94.2323 23.276 98.0483 19.064 103.88 19.064C108.884 19.064 112.088 21.98 112.628 26.12H106.976C106.616 24.464 105.608 23.384 103.952 23.384C101.432 23.384 100.172 25.472 100.172 28.82C100.172 32.096 101.432 34.184 103.952 34.184C105.788 34.184 106.904 33.104 107.156 31.016H112.772C112.628 35.264 109.244 38.576 104.024 38.576ZM114.678 38V12.26H120.618V38H114.678ZM132.467 38.54C126.383 38.54 122.639 34.328 122.639 28.748C122.639 23.24 126.491 19.028 132.107 19.028C134.735 19.028 136.823 19.892 138.407 21.332C140.603 23.348 141.683 26.552 141.647 30.296H128.399C128.759 32.78 130.127 34.328 132.539 34.328C134.087 34.328 135.095 33.644 135.599 32.492H141.323C140.927 34.148 139.847 35.732 138.227 36.848C136.679 37.928 134.807 38.54 132.467 38.54ZM128.435 26.804H135.707C135.491 24.608 134.123 23.204 132.215 23.204C129.983 23.204 128.831 24.608 128.435 26.804Z" fill="#FAF0E6"/>
<circle cx="171" cy="25" r="25" fill="#FAF0E6"/>
<path d="M172 40L174 38H184L182 40H172Z" fill="#757575"/>
<rect x="174" y="28" width="10" height="10" fill="#282828"/>
</svg>
