<svg width="136" height="26" viewBox="0 0 136 26" fill="none" xmlns="http://www.w3.org/2000/svg">
<path d="M12.888 3.076C15.192 3.076 17.712 3.508 18.936 3.94C18.252 6.604 17.748 8.728 17.1 12.112L16.308 12.076C16.992 8.188 15.768 7.648 11.376 7.648C6.624 7.648 4.536 9.16 4.536 10.6C4.536 13.48 17.352 11.644 17.352 16.612C17.352 19.96 12.132 25.396 6.948 25.396C3.708 25.396 1.368 24.136 0.18 23.056C0.972 20.392 1.512 17.584 1.944 15.028H2.772C2.304 20.428 6.876 21.616 11.232 21.616C14.04 21.616 15.084 20.644 15.084 19.132C15.084 16.072 3.636 14.956 3.636 10.456C3.636 6.856 6.84 3.076 12.888 3.076ZM30.5949 25.396C29.4069 25.396 28.4709 23.812 28.4709 21.94C28.4709 20.176 30.3069 15.82 31.4229 13.048L31.0629 12.94C26.4909 21.58 23.8269 25.396 21.8829 25.396C20.3709 25.396 18.9309 23.092 18.9309 18.7C18.9309 12.832 23.3949 6.856 34.0869 6.892C32.8269 10.312 31.1709 16.54 31.1709 18.916C31.1709 20.104 31.8189 20.68 32.5389 20.68C33.2949 20.68 33.6549 20.068 34.7709 17.656L35.3109 17.908C33.5109 23.704 32.2869 25.396 30.5949 25.396ZM22.3149 20.284C24.0069 20.284 27.4269 18.484 31.3149 11.644C22.9269 12.94 19.9029 16.36 19.9029 18.664C19.9029 19.708 20.9109 20.284 22.3149 20.284ZM59.344 13.048C59.344 12.436 58.732 11.932 57.436 11.932C54.844 11.932 52.396 14.308 49.3 25H44.296C45.772 19.42 50.524 14.884 50.524 13.048C50.524 12.436 49.912 11.932 48.616 11.932C45.988 11.932 43.504 14.308 40.408 25H35.188C36.664 20.68 41.308 14.776 41.308 13.12C41.308 12.4 40.66 11.824 39.292 11.824C37.996 11.824 37.06 12.184 36.124 14.416L35.584 14.2C37.24 9.16 38.464 6.82 40.192 6.82C41.452 6.82 42.46 8.62 42.46 12.544C42.46 13.912 41.848 16.864 41.308 19.528L41.596 19.6C44.584 10.24 46.816 6.82 49.084 6.82C50.92 6.82 51.748 9.304 51.748 11.824C51.748 13.228 50.848 16.936 50.236 19.528L50.488 19.6C53.44 10.24 55.672 6.82 58.192 6.82C59.956 6.82 61.18 8.584 61.18 10.312C61.18 12.652 58.732 16.9 58.732 18.844C58.732 19.888 59.308 20.284 59.884 20.284C60.712 20.284 61.288 19.816 62.332 17.476L62.8 17.692C61.036 23.668 59.524 25.396 57.544 25.396C55.816 25.396 54.52 23.668 54.52 21.976C54.52 18.772 59.344 14.956 59.344 13.048ZM75.2082 25.396C74.0202 25.396 73.0842 23.812 73.0842 21.94C73.0842 20.176 74.9202 15.82 76.0362 13.048L75.6762 12.94C71.1042 21.58 68.4402 25.396 66.4962 25.396C64.9842 25.396 63.5442 23.092 63.5442 18.7C63.5442 12.832 68.0082 6.856 78.7002 6.892C77.4402 10.312 75.7842 16.54 75.7842 18.916C75.7842 20.104 76.4322 20.68 77.1522 20.68C77.9082 20.68 78.2682 20.068 79.3842 17.656L79.9242 17.908C78.1242 23.704 76.9002 25.396 75.2082 25.396ZM66.9282 20.284C68.6202 20.284 72.0402 18.484 75.9282 11.644C67.5402 12.94 64.5162 16.36 64.5162 18.664C64.5162 19.708 65.5242 20.284 66.9282 20.284ZM90.4213 11.572C86.0653 11.572 81.7453 14.236 81.7453 18.124C81.7453 19.78 83.1853 20.572 85.4173 20.572C88.6213 20.572 91.7173 19.132 92.7613 16.9L93.2653 17.224C91.9693 21.508 89.3773 25.36 85.7053 25.36C82.7173 25.36 80.6653 22.768 80.6653 17.656C80.6653 12.184 84.3733 6.856 90.4213 6.892C92.1133 6.892 93.9133 7.288 94.8853 7.684C94.2373 10.168 93.6973 12.184 93.0493 14.776L92.3653 14.704C92.6533 12.76 92.5453 11.572 90.4213 11.572ZM100.484 5.056C100.484 4.444 99.9084 4.012 99.0084 4.012C98.2524 4.012 97.0644 4.408 96.0564 5.056L95.6604 4.552C97.0644 2.248 98.5764 0.52 99.9084 0.52C100.88 0.52 101.744 1.456 101.744 2.932C101.708 6.532 98.8644 15.352 98.8644 18.268C98.8644 19.672 99.4404 20.104 100.124 20.104C100.88 20.104 101.42 19.6 102.32 17.584L102.824 17.8C101.096 23.704 99.5844 25.396 97.7124 25.396C95.9484 25.396 94.6164 23.704 94.6164 21.652C94.6164 17.584 100.484 7.9 100.484 5.056ZM111.974 11.32C108.77 11.32 105.854 13.732 104.882 16.252C111.434 14.848 114.206 13.696 114.206 12.652C114.206 12.04 113.594 11.32 111.974 11.32ZM108.626 25.396C105.674 25.396 103.55 22.876 103.55 17.44C103.55 11.644 108.41 6.82 112.37 6.82C115.466 6.82 117.302 9.304 117.302 11.32C117.302 14.128 113.558 15.388 104.738 16.684C104.594 17.152 104.522 17.584 104.522 18.016C104.522 19.78 106.826 20.464 108.59 20.464C111.398 20.464 115.466 18.952 116.618 16.648L117.122 16.972C115.322 21.76 112.118 25.396 108.626 25.396ZM125.159 18.88H124.727C125.051 17.224 125.195 14.704 125.087 12.76C122.999 13.192 120.371 14.056 118.715 14.812L118.607 14.416C120.263 13.552 122.675 11.824 124.439 10.312C123.323 8.908 121.775 7.252 120.587 6.352L120.911 5.956C122.207 6.712 124.439 7.612 126.203 8.188C127.319 6.208 128.471 3.58 128.939 1.924H129.371C129.047 3.58 128.867 6.1 128.975 8.08C131.063 7.612 133.691 6.748 135.347 5.992L135.491 6.388C133.835 7.252 131.387 8.98 129.623 10.528C130.739 11.896 132.287 13.552 133.475 14.416L133.187 14.812C131.891 14.056 129.659 13.192 127.859 12.652C126.779 14.596 125.663 17.188 125.159 18.88Z" fill="white"/>
</svg>
